<?xml version="1.0" standalone="no"?>
<!DOCTYPE svg PUBLIC "-//W3C//DTD SVG 20010904//EN"
 "http://www.w3.org/TR/2001/REC-SVG-20010904/DTD/svg10.dtd">
<svg version="1.0" xmlns="http://www.w3.org/2000/svg"
 width="128.000000pt" height="128.000000pt" viewBox="0 0 128.000000 128.000000"
 preserveAspectRatio="xMidYMid meet">
<metadata>
Created by potrace 1.11, written by Peter Selinger 2001-2013
</metadata>
<g transform="translate(0.000000,128.000000) scale(0.100000,-0.100000)"
fill="#000000" stroke="none">
<path d="M230 1188 c-133 -51 -168 -210 -67 -309 l41 -39 1 -228 c1 -125 3
-229 3 -232 2 -6 148 -4 159 3 4 3 8 106 8 230 l-1 225 43 43 c24 24 43 46 43
50 0 3 134 7 298 7 163 0 302 1 308 1 6 1 10 29 9 74 l0 72 -285 2 c-157 1
-297 2 -311 3 -17 0 -29 8 -37 25 -26 57 -145 99 -212 73z m121 -114 c27 -24
26 -93 -1 -122 -12 -12 -25 -23 -30 -23 -6 -1 -16 -2 -22 -3 -25 -4 -69 16
-79 36 -25 46 -22 77 11 109 27 27 36 31 67 26 19 -4 44 -14 54 -23z"/>
<path d="M906 900 c-1 -3 -2 -106 -1 -229 l1 -223 -43 -44 c-24 -25 -43 -49
-43 -53 0 -5 -138 -9 -307 -8 l-308 1 0 -75 0 -74 309 -2 c244 -1 311 -5 317
-15 31 -55 91 -89 159 -90 173 -1 251 215 119 327 l-33 27 -1 226 c-1 125 -3
229 -3 232 -2 7 -163 7 -166 0z m145 -566 c68 -61 -4 -173 -90 -143 -37 13
-51 35 -51 81 0 75 85 112 141 62z"/>
</g>
</svg>
